<svg xmlns="http://www.w3.org/2000/svg" data-name="Layer 1" viewBox="0 0 72 72"><path fill="#f73529" d="M35 36a8.995 8.995 0 0 1-17.48 2.99A8.7 8.7 0 0 1 17 36a9.014 9.014 0 0 1 9-9 8.7 8.7 0 0 1 2.99.52A9 9 0 0 1 35 36Z"/><path fill="#ff652a" d="M29.5 30.5a8.994 8.994 0 0 1-11.98 8.49A8.7 8.7 0 0 1 17 36a7.592 7.592 0 0 1 .07-1.07 8.985 8.985 0 0 1 7.86-7.86A7.592 7.592 0 0 1 26 27a8.7 8.7 0 0 1 2.99.52 8.925 8.925 0 0 1 .51 2.98Z"/><path fill="#ffa12a" d="M24.93 27.07a8.985 8.985 0 0 1-7.86 7.86 8.985 8.985 0 0 1 7.86-7.86Z"/><path fill="#ff652a" d="M26 25a1 1 0 0 1-1-1v-4a1 1 0 0 1 2 0v4a1 1 0 0 1-1 1Z"/><path fill="#ffa12a" d="M17.015 28.308a1 1 0 0 1-.707-.293l-2.829-2.829a1 1 0 1 1 1.415-1.415l2.828 2.83a1 1 0 0 1-.707 1.707Z"/><path fill="#ff652a" d="M13 37H9a1 1 0 0 1 0-2h4a1 1 0 0 1 0 2Z"/><path fill="#f73529" d="M13.479 48.813a1 1 0 0 1-.707-1.707l2.828-2.828a1 1 0 0 1 1.414 1.414l-2.828 2.829a1 1 0 0 1-.707.292zM25 54a1 1 0 0 1-1-1v-4a1 1 0 0 1 2 0v4a1 1 0 0 1-1 1z"/><path fill="#a0d1f2" d="m63.99 7.11-5 46A.989.989 0 0 1 58 54H34a.989.989 0 0 1-.99-.89l-5-46a1.012 1.012 0 0 1 .25-.78A1 1 0 0 1 29 6h34a1 1 0 0 1 .74.33 1.012 1.012 0 0 1 .25.78Z"/><path fill="#c6e5ff" d="M61.34 6 56.5 50.55V54H34a.989.989 0 0 1-.99-.89l-2.05-18.86-2.95-27.14a1.012 1.012 0 0 1 .25-.78A1 1 0 0 1 29 6Z"/><path fill="#d7efff" d="M49 11a24.013 24.013 0 0 1-18.04 23.25L28.01 7.11a1.012 1.012 0 0 1 .25-.78A1 1 0 0 1 29 6h19.47a23.5 23.5 0 0 1 .53 5Z"/><path fill="#3f60ea" d="M58 52H34a1 1 0 0 0-1 1v10a3 3 0 0 0 3 3h20a3 3 0 0 0 3-3V53a1 1 0 0 0-1-1Z"/><path fill="#566ff8" d="M56.1 62a3.017 3.017 0 0 1-2.6 1.5h-20a2.316 2.316 0 0 1-.46-.04A2.316 2.316 0 0 1 33 63v-2a1 1 0 0 0 1 1zM64 7.1l-.6 6a1.015 1.015 0 0 1-1 .9H29.6a1.015 1.015 0 0 1-1-.9l-.6-6a1.036 1.036 0 0 1 .26-.77A1 1 0 0 1 29 6h34a1 1 0 0 1 .74.33 1.036 1.036 0 0 1 .26.77z"/><path fill="#6c95f8" d="m61.34 6-.87 8H29.6a1.015 1.015 0 0 1-1-.9l-.6-6a1.036 1.036 0 0 1 .26-.77A1 1 0 0 1 29 6Z"/><path fill="#8fb6f8" d="M49 11a22.8 22.8 0 0 1-.19 3H29.6a1.015 1.015 0 0 1-1-.9l-.6-6a1.036 1.036 0 0 1 .26-.77A1 1 0 0 1 29 6h19.47a23.5 23.5 0 0 1 .53 5Z"/><rect width="26" height="10" x="33" y="52" fill="#6c95f8" rx="1"/><path fill="#8fb6f8" d="M56.5 52v8.5a3.055 3.055 0 0 1-.4 1.5H34a1 1 0 0 1-1-1v-8a1 1 0 0 1 1-1Z"/><path fill="#c6e5ff" d="M52 60v2H40v-2a3 3 0 0 1 3-3h6a2.955 2.955 0 0 1 1.56.44 2.9 2.9 0 0 1 1 1h.01A3.041 3.041 0 0 1 52 60Z"/><path fill="#eaf7ff" d="M52 60v2H41v-1a3 3 0 0 1 3-3h6a2.955 2.955 0 0 1 1.56.44h.01A3.041 3.041 0 0 1 52 60Z"/><path fill="#ff8a00" d="M55 20.5v5.35a12.9 12.9 0 0 1-6.11 11.02l-1.3.82a3.034 3.034 0 0 1-3.18 0l-1.3-.82a13.9 13.9 0 0 1-3.06-2.65 12.867 12.867 0 0 1-3.04-7.79c-.01-.11-.01-.22-.01-.33v-5.6a.22.22 0 0 1 .01-.08.98.98 0 0 1 .75-.89l8-2a.814.814 0 0 1 .38-.01.34.34 0 0 1 .1.01l7.26 1.82.5.12.24.06a1 1 0 0 1 .76.97Z"/><path fill="#ffc100" d="M46.14 17.52h-.03a.22.22 0 0 0-.08.01l-8.25 2.06a1.042 1.042 0 0 0-.77.83.915.915 0 0 0-.01.17v5.51c0 .11 0 .22.01.33a12.867 12.867 0 0 0 3.04 7.79 12.251 12.251 0 0 0 1.87 1.8l1.17.74a3.106 3.106 0 0 0 1.64.46 3.157 3.157 0 0 0 1.64-.46l1.33-.85a13.27 13.27 0 0 0 4.63-4.85 13.432 13.432 0 0 0 1.67-6.5v-5.09Z"/><path fill="#ffcb39" d="M47.97 17.96a23.959 23.959 0 0 1-9.86 13.13 3.493 3.493 0 0 1-.15-.34 12.851 12.851 0 0 1-.96-4.9V20.5a1 1 0 0 1 .76-.97l8-2a.975.975 0 0 1 .48 0l1.27.32Z"/><path fill="#ffc100" d="M53 43H39a1 1 0 0 1 0-2h14a1 1 0 0 1 0 2zm-2 4H41a1 1 0 0 1 0-2h10a1 1 0 0 1 0 2z"/><path fill="#566ff8" d="M56.1 62a3.017 3.017 0 0 1-2.6 1.5h-20a2.316 2.316 0 0 1-.46-.04A2.316 2.316 0 0 1 33 63v-2a1 1 0 0 0 1 1Z"/></svg>