<svg xmlns="http://www.w3.org/2000/svg" data-name="Layer 1" viewBox="0 0 512 512"><path fill="#8b8891" d="M397.5,137.11133a7.50082,7.50082,0,0,1-5.94043-2.9209c-1.09473-1.4209-11.18848-13.88574-28.14551-14.08008a7.49976,7.49976,0,0,1,.084-14.999c.02929,0,.05859,0,.08789.001A51.4603,51.4603,0,0,1,397.5,118.72754a51.4603,51.4603,0,0,1,33.91406-13.61524c.0293-.001.0586-.001.08789-.001a7.49976,7.49976,0,0,1,.084,14.999c-16.957.19434-27.05078,12.65918-28.14551,14.08008A7.50082,7.50082,0,0,1,397.5,137.11133Z"/><path fill="#e0e0e2" d="M471.7118,253.70227a53.80928,53.80928,0,0,0-96.95857-43.17611,51.12444,51.12444,0,0,0-67.65016,41.85867A45.49623,45.49623,0,0,0,268.75,297.34844v.00011a45.46987,45.46987,0,0,0,45.4241,45.5155H458.8259a45.46987,45.46987,0,0,0,45.4241-45.5155v-.00011A45.51442,45.51442,0,0,0,471.7118,253.70227Z"/><path fill="#d9d8da" d="M298.75,317.34851v-.00012a45.49624,45.49624,0,0,1,38.353-44.96362,51.12451,51.12451,0,0,1,67.65014-41.85865,53.7161,53.7161,0,0,1,45.5669-24.08911,53.07807,53.07807,0,0,1,12.24316,1.61157,53.6473,53.6473,0,0,0-87.81006,2.47754A51.12451,51.12451,0,0,0,307.103,252.38477a45.49624,45.49624,0,0,0-38.353,44.96362v.00012a45.49355,45.49355,0,0,0,37.33057,44.78064A45.35366,45.35366,0,0,1,298.75,317.34851Z"/><path fill="#e0e0e2" d="M258.97448,260.09946a67.02209,67.02209,0,0,0,2.05763-17.45975c-.48754-35.92135-29.82066-65.31494-65.66992-65.80066a66.48905,66.48905,0,0,0-56.40225,29.81737,63.28144,63.28144,0,0,0-83.73683,51.81232A56.31488,56.31488,0,0,0,7.75,314.12434v.00013a56.28224,56.28224,0,0,0,56.22559,56.33872H243.02441A56.28224,56.28224,0,0,0,299.25,314.12447v-.00013A56.33738,56.33738,0,0,0,258.97448,260.09946Z"/><path fill="#d9d8da" d="M37.75,334.12451v-.00024a56.31478,56.31478,0,0,1,47.47314-55.65552A63.28124,63.28124,0,0,1,168.96,226.65649a66.48846,66.48846,0,0,1,56.40222-29.81738,65.67473,65.67473,0,0,1,19.4021,3.19946A66.35406,66.35406,0,0,0,138.96,206.65649a63.28124,63.28124,0,0,0-83.73682,51.81226A56.31478,56.31478,0,0,0,7.75,314.12427v.00024a56.33656,56.33656,0,0,0,41.74658,54.44336A56.14865,56.14865,0,0,1,37.75,334.12451Z"/><path fill="#e0e0e2" d="M374.75738,366.77894A55.89036,55.89036,0,0,0,274.04892,321.933a53.1017,53.1017,0,0,0-70.26654,43.47756A47.2558,47.2558,0,0,0,163.946,412.11313v.00012a47.22843,47.22843,0,0,0,47.18089,47.27582H361.37311A47.22843,47.22843,0,0,0,408.554,412.11325v-.00012A47.2747,47.2747,0,0,0,374.75738,366.77894Z"/><path fill="#d9d8da" d="M193.946,432.11328V432.113a47.25583,47.25583,0,0,1,39.83631-46.70252A53.102,53.102,0,0,1,304.049,341.933a55.79339,55.79339,0,0,1,47.3291-25.02087,55.13994,55.13994,0,0,1,13.39746,1.83984,55.70156,55.70156,0,0,0-90.72656,3.181,53.102,53.102,0,0,0-70.2666,43.47754A47.25583,47.25583,0,0,0,163.946,412.113v.00024A47.26125,47.26125,0,0,0,201.969,458.49121,47.12015,47.12015,0,0,1,193.946,432.11328Z"/><path fill="#8b8891" d="M146.5,77.11133a7.50082,7.50082,0,0,1-5.94043-2.9209c-1.09473-1.4209-11.18848-13.88574-28.14551-14.08008a7.49976,7.49976,0,0,1,.084-14.999c.02929,0,.05859,0,.08789.001A51.4603,51.4603,0,0,1,146.5,58.72754,51.4603,51.4603,0,0,1,180.41406,45.1123c.0293-.001.0586-.001.08789-.001a7.49976,7.49976,0,0,1,.084,14.999c-16.957.19434-27.05078,12.65918-28.14551,14.08008A7.50082,7.50082,0,0,1,146.5,77.11133Z"/></svg>