<svg xmlns="http://www.w3.org/2000/svg" data-name="Layer 1" viewBox="0 0 130 130"><circle cx="53.88" cy="58.14" r="29.35" fill="#ffb100"/><circle cx="47.75" cy="50.97" r="13.08" fill="#fff" opacity=".25"/><path fill="#ed9e00" d="M83.21,59A29.35,29.35,0,0,1,28.42,72.74a29.35,29.35,0,0,0,40-40.09A29.35,29.35,0,0,1,83.21,59Z"/><line x1="87.62" x2="94.11" y1="45.33" y2="42.87" fill="#ed9e00"/><path fill="#ed9e00" d="M87.08 43.9l7-1-5.94 3.9a1.57 1.57 0 1 1-1.09-2.87zM20.68 72.38l-7 1 5.95-3.9a1.57 1.57 0 1 1 1.09 2.87zM53.43 22l1.84-10.4L56.5 22.11a1.56 1.56 0 0 1-3.09.36A1.35 1.35 0 0 1 53.43 22zM54.33 94.26l-1.84 10.4L51.26 94.17a1.56 1.56 0 0 1 3.09-.36A1.68 1.68 0 0 1 54.33 94.26z"/><line x1="89.95" x2="100.4" y1="59.22" y2="59.53" fill="#ed9e00"/><path fill="#ed9e00" d="M90 57.69l10.4 1.84L89.91 60.76a1.56 1.56 0 0 1-.36-3.09A1.68 1.68 0 0 1 90 57.69zM17.76 58.59L7.36 56.75l10.49-1.23a1.56 1.56 0 0 1 .36 3.09A1.35 1.35 0 0 1 17.76 58.59z"/><line x1="80.15" x2="87.76" y1="33.4" y2="26.23" fill="#ed9e00"/><path fill="#ed9e00" d="M79.1 32.28l8.66-6.05-6.55 8.28a1.55 1.55 0 1 1-2.44-1.92A1.6 1.6 0 0 1 79.1 32.28zM28.66 84l-8.66 6 6.55-8.28A1.55 1.55 0 0 1 29 83.69 1.6 1.6 0 0 1 28.66 84z"/><line x1="78.62" x2="85.79" y1="84.41" y2="92.02" fill="#ed9e00"/><path fill="#ed9e00" d="M79.74 83.36L85.79 92l-8.28-6.55A1.55 1.55 0 0 1 79.43 83 1.6 1.6 0 0 1 79.74 83.36zM28 32.92L22 24.26l8.28 6.55a1.55 1.55 0 1 1-1.92 2.44A1.6 1.6 0 0 1 28 32.92zM39.64 24.94l-1-7 3.9 5.94a1.57 1.57 0 1 1-2.87 1.09z"/><line x1="66.69" x2="69.15" y1="91.88" y2="98.38" fill="#ed9e00"/><path fill="#ed9e00" d="M68.12 91.34l1 7-3.9-5.95a1.57 1.57 0 1 1 2.87-1.09zM67.28 24.6l4.25-5.71-1.45 7A1.57 1.57 0 1 1 67 25.22 1.6 1.6 0 0 1 67.28 24.6zM40.48 91.69l-4.25 5.7 1.44-7a1.58 1.58 0 0 1 3.09.64A1.74 1.74 0 0 1 40.48 91.69z"/><line x1="86.79" x2="93.13" y1="72.94" y2="75.79" fill="#ed9e00"/><path fill="#ed9e00" d="M87.42 71.54l5.71 4.25-7-1.44a1.58 1.58 0 1 1 1.26-2.81zM20.33 44.74l-5.7-4.25 7 1.45A1.57 1.57 0 0 1 21 45 1.74 1.74 0 0 1 20.33 44.74z"/><path fill="#e6e6e6" d="M101.85,71.48V14.22A13.22,13.22,0,0,0,88.62,1h0A13.22,13.22,0,0,0,75.4,14.22V71.48a30.28,30.28,0,1,0,26.45,0Z"/><path fill="#e21921" d="M110.71,98.73V99c0,.26,0,.52,0,.77,0,0,0,0,0,.08,0,.29,0,.57-.06.85a2.13,2.13,0,0,1,0,.27c0,.3-.06.59-.11.89,0,.06,0,.12,0,.2s-.07.44-.11.65-.09.48-.14.73-.13.58-.21.86c-.16.63-.36,1.26-.57,1.87-.12.34-.26.68-.39,1-.28.66-.58,1.31-.92,1.94l-.53.94a21,21,0,0,1-1.21,1.8c-.22.29-.44.58-.67.86q-.69.84-1.47,1.62a22,22,0,0,1-15.62,6.47,17.93,17.93,0,0,1-1.93-.09l-.62-.06h0A22.09,22.09,0,0,1,79,78.85l4.6-2.24V52.84a5,5,0,0,1,5-5h.07a5,5,0,0,1,5,5V76.61l4.61,2.24A22.72,22.72,0,0,1,110.7,97.93C110.71,98.2,110.71,98.46,110.71,98.73Z"/><path fill="#d11927" d="M110.71,98.73v0q0,.51,0,1s0,0,0,.08c0,.29,0,.57-.06.85a2.13,2.13,0,0,1,0,.27c0,.3-.06.59-.11.89,0,.06,0,.12,0,.2s-.07.44-.11.65-.09.48-.14.73-.13.58-.21.86c-.16.63-.36,1.26-.57,1.87-.12.34-.26.68-.39,1-.28.66-.58,1.31-.92,1.94l-.53.94a21,21,0,0,1-1.21,1.8c-.22.29-.44.58-.67.86q-.69.84-1.47,1.62a22,22,0,0,1-15.62,6.47,17.93,17.93,0,0,1-1.93-.09l-.62,0h0a22.08,22.08,0,0,0,7.12-41.81l-4.61-2.24V47.81h.07a5,5,0,0,1,5,5V76.61l4.61,2.24A22,22,0,0,1,110.7,97.93C110.71,98.2,110.71,98.46,110.71,98.73Z"/><path fill="#b3b3b3" d="M121.11 15.25H110.58a1.54 1.54 0 1 1 0-3.08h10.53a1.54 1.54 0 0 1 0 3.08zM116.72 27.67h-6.14a1.54 1.54 0 1 1 0-3.07h6.14a1.54 1.54 0 0 1 0 3.07zM121.11 40.09H110.58a1.54 1.54 0 1 1 0-3.07h10.53a1.54 1.54 0 0 1 0 3.07zM116.72 52.51h-6.14a1.54 1.54 0 1 1 0-3.07h6.14a1.54 1.54 0 0 1 0 3.07zM121.11 64.93H110.58a1.54 1.54 0 1 1 0-3.07h10.53a1.54 1.54 0 0 1 0 3.07z"/><circle cx="86.02" cy="96.97" r="14.47" fill="#fff" opacity=".2"/><circle cx="80.54" cy="90.72" r="6.24" fill="#fff" opacity=".35"/></svg>