<svg xmlns="http://www.w3.org/2000/svg" data-name="Layer 1" viewBox="0 0 512 512"><path fill="#fdd402" d="M435.367 199.184c0 10.249-21.134 17.03-24.137 26.277-3.112 9.584 9.89 27.473 4.085 35.45-5.864 8.057-26.933 1.187-34.99 7.051-7.978 5.806-7.921 27.996-17.505 31.108-9.247 3.003-22.205-14.886-32.453-14.886-10.249 0-23.206 17.889-32.454 14.886-9.584-3.112-9.527-25.303-17.504-31.109-8.058-5.863-29.127 1.007-34.99-7.05-5.806-7.978 7.196-25.866 4.084-35.45-3.002-9.248-24.136-16.029-24.136-26.277 0-10.248 21.134-17.03 24.137-26.277 3.112-9.584-9.891-27.472-4.085-35.45 5.864-8.057 26.933-1.187 34.99-7.05 7.978-5.806 7.921-27.997 17.505-31.109 9.247-3.002 22.205 14.886 32.453 14.886 10.248 0 23.206-17.888 32.454-14.885 9.584 3.112 9.527 25.302 17.504 31.108 8.057 5.864 29.127-1.006 34.99 7.051 5.806 7.977-7.196 25.866-4.085 35.45 3.003 9.247 24.137 16.028 24.137 26.276Z"/><path fill="#fbbf13" d="M245.367 219.184c0-10.248 21.134-17.03 24.137-26.277 3.111-9.584-9.891-27.472-4.085-35.45 5.864-8.057 26.933-1.187 34.99-7.05 7.978-5.806 7.921-27.997 17.505-31.109 9.247-3.002 22.205 14.886 32.453 14.886 7.43 0 16.285-9.4 24.117-13.426-3.118-8.577-5.197-19.36-11.663-21.46-9.248-3.002-22.206 14.886-32.454 14.886s-23.206-17.888-32.453-14.886c-9.584 3.112-9.527 25.303-17.505 31.108-8.057 5.864-29.126-1.006-34.99 7.051-5.806 7.978 7.196 25.866 4.085 35.45-3.003 9.248-24.137 16.029-24.137 26.277 0 8.03 12.975 13.933 20.036 20.56-.014-.186-.036-.371-.036-.56Z"/><circle cx="330.367" cy="199.184" r="50" fill="#f7991d"/><path fill="#e37626" d="M310.367 199.184a50.02 50.02 0 0 1 35-47.707 50 50 0 1 0 0 95.415 50.02 50.02 0 0 1-35-47.708Z"/><path fill="#e0e0e2" d="M504.5 304.04a42.865 42.865 0 0 1-42.83 42.91H325.3a42.918 42.918 0 0 1-6.67-85.3 48.395 48.395 0 0 1 24.38-36.1 48.166 48.166 0 0 1 39.4-3.37 50.704 50.704 0 0 1 92.98 27.41 51.178 51.178 0 0 1-1.57 13.3 42.908 42.908 0 0 1 30.68 41.15Z"/><path fill="#d9d8da" d="M312.47 324.04a42.889 42.889 0 0 1 36.16-42.39 48.395 48.395 0 0 1 24.38-36.1 48.166 48.166 0 0 1 39.4-3.37 50.651 50.651 0 0 1 42.96-22.71 50.083 50.083 0 0 1 10.458 1.255 50.57 50.57 0 0 0-83.418 1.455 48.204 48.204 0 0 0-63.78 39.47 42.926 42.926 0 0 0 .145 84.805 42.745 42.745 0 0 1-6.305-22.415Z"/><path fill="#d9d8da" d="M394.25 335.97a71.034 71.034 0 0 1-.84 10.98H325.3a42.918 42.918 0 0 1-6.67-85.3 48.395 48.395 0 0 1 24.38-36.1 83.76 83.76 0 0 1 2.5 19.25 85.192 85.192 0 0 1-2.62 22.27 71.856 71.856 0 0 1 51.36 68.9Z"/><path fill="#e0e0e2" d="M327.888 267.068a85.475 85.475 0 0 0 2.624-22.266c-.621-45.811-38.03-83.297-83.749-83.916a84.794 84.794 0 0 0-71.93 38.026 80.703 80.703 0 0 0-106.79 66.076A71.819 71.819 0 0 0 7.5 335.966a71.777 71.777 0 0 0 71.705 71.85h228.342a71.777 71.777 0 0 0 71.705-71.85 71.847 71.847 0 0 0-51.364-68.898Z"/><path fill="#d9d8da" d="M358.317 285.263c-.14.603-.277 1.207-.429 1.805a70.83 70.83 0 0 1 3.086.997 72.26 72.26 0 0 0-2.657-2.802zM37.5 355.967a71.819 71.819 0 0 1 60.543-70.978 80.703 80.703 0 0 1 106.79-66.077 84.794 84.794 0 0 1 71.93-38.027 83.721 83.721 0 0 1 29.562 5.827 84.6 84.6 0 0 0-131.492 12.2 80.703 80.703 0 0 0-106.79 66.077A71.819 71.819 0 0 0 7.5 335.966a71.853 71.853 0 0 0 48.278 67.906A71.652 71.652 0 0 1 37.5 355.967z"/></svg>